<?xml version="1.0" encoding="iso-8859-1"?>
<!-- Generator: Adobe Illustrator 19.0.0, SVG Export Plug-In . SVG Version: 6.00 Build 0)  -->
<svg version="1.1" id="Capa_1" xmlns="http://www.w3.org/2000/svg" xmlns:xlink="http://www.w3.org/1999/xlink" x="0px" y="0px"
	 viewBox="0 0 512 512" style="enable-background:new 0 0 512 512;" xml:space="preserve">
<circle style="fill:#CCCCCC;" cx="256" cy="256" r="256"/>
<path style="fill:#A6A6A6;" d="M256,0c-4.319,0-8.611,0.111-12.877,0.322C378.524,7.03,486.245,118.934,486.245,256
	S378.524,504.97,243.123,511.678C247.389,511.889,251.681,512,256,512c141.385,0,256-114.615,256-256S397.385,0,256,0z"/>
<path style="fill:#E3E3E3;" d="M419.208,384.865c-29.099,59.506-103.439,75.4-163.21,76.141
	c-59.762-0.741-134.102-16.635-163.21-76.141C63.689,325.35,19.473,144.417,94.306,91.028c74.842-53.379,248.551-53.379,323.384,0
	C492.533,144.417,448.307,325.35,419.208,384.865z"/>
<path style="fill:#E82934;" d="M379.471,397.029c-11.687,26.018-70.645,36.845-123.475,37.604
	c-52.821-0.759-111.779-11.587-123.466-37.604c-11.687-26.017-77.933-252.447-18.948-290.855s225.853-38.409,284.838,0
	S391.158,371.012,379.471,397.029z"/>
<g>
	<polygon style="fill:#E3E3E3;" points="131.669,162.937 136.774,348.598 159.519,349.063 159.519,264.121 178.549,264.121 
		178.549,242.771 159.519,242.771 159.519,186.146 185.048,186.146 185.048,162.937 	"/>
	<polygon style="fill:#E3E3E3;" points="201.148,162.937 226.085,162.937 225.748,349.063 202.076,349.063 	"/>
	<path style="fill:#E3E3E3;" d="M245.844,163.28h53.526c0,0,13.27,28.487,17.846,68.459c5.68,49.642,2.613,117.077,2.613,117.077
		h-19.99l-0.101-85.573H270.24l-0.276,85.821H247.75L245.844,163.28z M298.644,243.391c0,0-2.37-22.036-6.919-38.599
		c-3.336-12.153-9.234-20.216-9.234-20.216h-13.342v58.086L298.644,243.391z"/>
	<polygon style="fill:#E3E3E3;" points="325.008,163.28 388.37,163.28 388.37,182.767 369.434,182.767 366.156,348.816 
		341.715,348.816 345.036,183.132 324.708,183.132 	"/>
</g>
<g>
</g>
<g>
</g>
<g>
</g>
<g>
</g>
<g>
</g>
<g>
</g>
<g>
</g>
<g>
</g>
<g>
</g>
<g>
</g>
<g>
</g>
<g>
</g>
<g>
</g>
<g>
</g>
<g>
</g>
</svg>
