<?xml version="1.0" encoding="iso-8859-1"?>
<!-- Generator: Adobe Illustrator 19.0.0, SVG Export Plug-In . SVG Version: 6.00 Build 0)  -->
<svg version="1.1" id="Capa_1" xmlns="http://www.w3.org/2000/svg" xmlns:xlink="http://www.w3.org/1999/xlink" x="0px" y="0px"
	 viewBox="0 0 512 512" style="enable-background:new 0 0 512 512;" xml:space="preserve">
<path id="SVGCleanerId_0" style="fill:#CCCCCC;" d="M256,34C133.384,34,34,133.394,34,256s99.384,222,222,222
	c122.606,0,222-99.394,222-222S378.606,34,256,34z M256,436.698c-99.642,0-180.698-81.056-180.698-180.698
	S156.358,75.302,256,75.302c99.632,0,180.698,81.056,180.698,180.698S355.632,436.698,256,436.698z"/>
<g>
	<path id="SVGCleanerId_0_1_" style="fill:#CCCCCC;" d="M256,34C133.384,34,34,133.394,34,256s99.384,222,222,222
		c122.606,0,222-99.394,222-222S378.606,34,256,34z M256,436.698c-99.642,0-180.698-81.056-180.698-180.698
		S156.358,75.302,256,75.302c99.632,0,180.698,81.056,180.698,180.698S355.632,436.698,256,436.698z"/>
</g>
<path style="fill:#8C8C8C;" d="M256,34c-4.334,0-8.635,0.138-12.907,0.383C359.69,41.069,452.186,137.728,452.186,256
	S359.69,470.931,243.093,477.617C247.365,477.862,251.666,478,256,478c122.606,0,222-99.394,222-222S378.606,34,256,34z"/>
<path style="fill:#A6A6A6;" d="M511.893,271.54l-5.75,24.72c-0.44,1.86-2.11,3.18-4.04,3.18H154.226c-1.69,0-3.1-1.16-3.48-2.74
	c-0.07-0.27-0.1-0.55-0.1-0.84c0-0.98,0.4-1.88,1.05-2.52c0.1-0.11,0.22-0.21,0.34-0.3l49.899-42.277
	c1.406-1.192,0.589-3.49-1.254-3.526L4.068,243.44c-2.88-0.05-4.83-2.93-3.78-5.59l10.61-26.82c0.62-1.56,2.13-2.59,3.82-2.61
	l283.877-3.08l53.719-0.58c1.56,0,2.88,0.99,3.37,2.37c0.14,0.37,0.21,0.78,0.21,1.2c0,0.94-0.36,1.79-0.95,2.42l-0.35,0.34
	c-0.01,0.01-0.02,0.02-0.03,0.02l-50.241,47.821c-1.294,1.231-0.448,3.412,1.338,3.448l202.282,4.141
	C510.563,266.58,512.483,269.01,511.893,271.54z"/>
<path style="fill:#CCCCCC;" d="M355.684,207.13l-6.53,2.86l-191.958,83.9l-6.45,2.81c-0.07-0.27-0.1-0.55-0.1-0.84
	c0-0.98,0.4-1.88,1.05-2.52c0.1-0.11,0.22-0.21,0.34-0.3l49.9-42.28c0.7-0.59,0.85-1.46,0.59-2.19l96.069-43.23l53.719-0.58
	C353.874,204.76,355.194,205.75,355.684,207.13z"/>
<path style="fill:#8C8C8C;" d="M355.894,208.33c0,0.94-0.36,1.79-0.95,2.42l-0.35,0.34c-0.01,0.01-0.02,0.02-0.03,0.02l-50.24,47.82
	c-0.64,0.61-0.76,1.45-0.5,2.15l-60.679,38.36h-88.919c-1.69,0-3.1-1.16-3.48-2.74l6.45-2.81l191.958-83.9l6.53-2.86
	C355.824,207.5,355.894,207.91,355.894,208.33z"/>
<g>
</g>
<g>
</g>
<g>
</g>
<g>
</g>
<g>
</g>
<g>
</g>
<g>
</g>
<g>
</g>
<g>
</g>
<g>
</g>
<g>
</g>
<g>
</g>
<g>
</g>
<g>
</g>
<g>
</g>
</svg>
