<?xml version="1.0" encoding="iso-8859-1"?>
<!-- Generator: Adobe Illustrator 19.0.0, SVG Export Plug-In . SVG Version: 6.00 Build 0)  -->
<svg version="1.1" id="Capa_1" xmlns="http://www.w3.org/2000/svg" xmlns:xlink="http://www.w3.org/1999/xlink" x="0px" y="0px"
	 viewBox="0 0 512 512" style="enable-background:new 0 0 512 512;" xml:space="preserve">
<polygon style="fill:#ACAFB7;" points="241.388,348.361 116.421,348.361 67.2,348.361 67.015,348.361 67.015,370.438 
	67.015,396.418 67.015,420.607 67.2,420.607 102.644,420.607 243.345,420.607 "/>
<path style="fill:#D1D5CD;" d="M478.874,93.174l-29.584,16.064l-1.287,0.7c-7.023,3.81-14.375,6.961-21.974,9.401
	c-12.439,3.975-20.595,6.106-37.091,6.137c-0.134,0-0.278,0-0.412,0H243.345c-81.503,0-147.57,66.067-147.57,147.57
	c0,27.514,7.527,53.268,20.646,75.314c25.723,43.259,72.935,72.246,126.924,72.246c81.492,0,147.56-66.067,147.56-147.56
	c0-22.747-5.149-44.288-14.334-63.524h11.955c0.134,0,0.278,0,0.412,0c16.496,0.021,24.652,2.152,37.091,6.137
	c7.599,2.43,14.952,5.591,21.974,9.391l30.871,16.764l19.184-0.404V93.174H478.874z"/>
<path style="fill:#CACCC6;" d="M388.938,209.523c6.333,0.008,11.431,0.33,16.019,0.945c-8.293-21.397-20.711-40.726-36.293-57.007
	c-10.218-10.739-21.811-20.154-34.484-27.985h-90.835c-81.503,0-147.57,66.067-147.57,147.57c0,27.514,7.527,53.268,20.646,75.314
	c25.723,43.259,72.935,72.246,126.924,72.246c81.492,0,147.56-66.067,147.56-147.56c0-22.747-5.149-44.288-14.334-63.524h11.955
	C388.66,209.523,388.804,209.523,388.938,209.523z"/>
<path style="fill:#9DA0A8;" d="M241.388,348.361H116.421H87.266c7.804,16.117,18.037,30.844,30.25,43.679
	c10.331,10.987,22.092,20.604,34.985,28.567h90.844L241.388,348.361z"/>
<path style="fill:#C0C4BC;" d="M349.932,171.335c-26.338-27.683-63.367-45.101-104.432-45.596c-0.708-0.071-1.416-0.071-2.124-0.071
	c-40.074,0-76.324,15.93-102.875,41.915c-26.905,26.126-43.826,62.518-44.464,102.875c-0.071,0.85-0.071,1.77-0.071,2.62
	c0,39.153,15.293,74.837,40.357,101.176c25.63,27.259,61.597,44.605,101.671,46.021c1.77,0.142,3.54,0.142,5.381,0.142
	c38.658,0,73.775-14.868,99.972-39.224c28.037-25.842,45.95-62.447,47.224-103.229c0.142-1.628,0.142-3.257,0.142-4.885
	C390.713,233.569,375.207,197.744,349.932,171.335z"/>
<path style="fill:#B5B7B2;" d="M276.961,387.921c-1.841,0-3.611,0-5.381-0.142c-40.074-1.416-76.041-18.763-101.671-46.02
	c-25.064-26.338-40.357-62.022-40.357-101.176c0-0.85,0-1.77,0.071-2.62c0.508-32.166,11.369-61.807,29.376-85.744
	c-6.579,4.614-12.766,9.754-18.499,15.365c-26.905,26.126-43.826,62.518-44.464,102.875c-0.071,0.85-0.071,1.77-0.071,2.62
	c0,39.153,15.293,74.837,40.357,101.176c25.63,27.259,61.597,44.605,101.671,46.021c1.77,0.142,3.54,0.142,5.381,0.142
	c38.658,0,73.775-14.868,99.972-39.224c6.552-6.039,12.543-12.673,17.906-19.804C337.41,378.115,308.353,387.921,276.961,387.921z"
	/>
<g>
	<path style="fill:#A1A59D;" d="M347.913,263.265c6.477,0,11.718,5.252,11.718,11.729c0,6.477-5.241,11.729-11.718,11.729
		c-6.477,0-11.729-5.252-11.729-11.729C336.185,268.516,341.436,263.265,347.913,263.265z"/>
	<path style="fill:#A1A59D;" d="M324.188,340.072c4.582,4.582,4.582,12.007,0,16.589c-4.572,4.572-11.996,4.572-16.579,0
		c-4.582-4.582-4.582-12.007,0-16.589C312.192,335.489,319.616,335.489,324.188,340.072z"/>
	<path style="fill:#A1A59D;" d="M241.388,365.887c6.477,0,11.729,5.241,11.729,11.718c0,6.477-5.252,11.729-11.729,11.729
		c-6.477,0-11.729-5.252-11.729-11.729C229.66,371.128,234.911,365.887,241.388,365.887z"/>
	<path style="fill:#A1A59D;" d="M176.31,337.312c4.582,4.572,4.582,11.996,0,16.579c-4.582,4.582-12.007,4.582-16.579,0
		c-4.582-4.582-4.582-12.007,0-16.579C164.303,332.73,171.727,332.73,176.31,337.312z"/>
	<circle style="fill:#A1A59D;" cx="138.776" cy="271.085" r="11.729"/>
</g>
<path style="fill:#ACAFB7;" d="M304.49,255.768c-4.623-16.393-15.662-30.099-30.243-38.223c-9.144-5.107-19.688-8.022-30.902-8.022
	c-6.044,0-11.893,0.844-17.433,2.42c-16.27,4.634-29.872,15.59-37.987,30.037h-0.01c-5.149,9.185-8.094,19.781-8.094,31.067
	c0,5.859,0.793,11.533,2.286,16.918c4.49,16.321,15.343,30.006,29.718,38.244c9.288,5.313,20.049,8.351,31.52,8.351
	c5.808,0,11.44-0.783,16.795-2.245c16.445-4.49,30.233-15.436,38.471-29.934c5.262-9.247,8.258-19.935,8.258-31.335
	C306.868,267.054,306.045,261.257,304.49,255.768z"/>
<path style="fill:#FFC35A;" d="M258.842,258.25c3.676,3.841,5.931,9.051,5.931,14.797c0,0.237,0,0.474-0.021,0.711
	c-0.185,5.931-2.791,11.255-6.868,15.013c-3.81,3.542-8.917,5.705-14.54,5.705c-0.268,0-0.525,0-0.783-0.021
	c-5.828-0.206-11.059-2.729-14.787-6.693c-3.645-3.831-5.869-9.02-5.869-14.715c0-0.124,0-0.257,0.01-0.381
	c0.093-5.869,2.554-11.162,6.467-14.962c3.861-3.779,9.134-6.096,14.962-6.096c0.103,0,0.206,0,0.309,0.01
	C249.626,251.69,255.011,254.224,258.842,258.25z"/>
<g>
	<path style="fill:#74767F;" d="M298.569,304.361l0.041,0.021c-8.238,14.499-22.026,25.444-38.471,29.934
		c-10.4-5.859-17.279-16.877-17.279-29.666l-0.309-9.844l0.01-0.35c0.257,0.021,0.515,0.021,0.783,0.021
		c5.622,0,10.73-2.162,14.54-5.705l0.103,0.103l7.177,6.734C274.206,304.659,287.067,307.563,298.569,304.361z"/>
	<path style="fill:#74767F;" d="M304.49,255.768c-5.869,10.411-17.155,17.68-29.944,17.68l-9.793,0.309
		c0.021-0.237,0.021-0.474,0.021-0.711c0-5.746-2.255-10.956-5.931-14.797l6.662-7.105c9.041-9.041,11.955-22.098,8.742-33.6
		C288.828,225.669,299.866,239.375,304.49,255.768z"/>
	<path style="fill:#74767F;" d="M243.654,251.608v0.01c-0.103-0.01-0.206-0.01-0.309-0.01c-5.828,0-11.1,2.317-14.962,6.096
		l-0.165-0.165l-7.177-6.734c-9.051-9.041-21.604-12.027-33.116-8.825c8.114-14.447,21.717-25.403,37.987-30.037v0.021
		c10.4,5.869,17.433,17.011,17.433,29.811L243.654,251.608z"/>
	<path style="fill:#74767F;" d="M227.775,287.762l-0.34,0.329l-6.734,7.177c-9.051,9.051-12.079,21.439-8.876,32.941
		c-14.375-8.238-25.228-21.923-29.718-38.244c5.869-10.39,16.764-17.001,29.553-17.001l9.844-0.309l0.412,0.01
		c-0.01,0.124-0.01,0.257-0.01,0.381C221.906,278.741,224.13,283.931,227.775,287.762z"/>
</g>
<path style="fill:#FFC35A;" d="M70.68,336.468L8.073,350.843C4.572,351.584,0,354.684,0,358.277v17.299v15.703v17.299
	c0,3.583,4.572,6.683,8.073,7.435l62.607,14.365c3.408,0.731,6.631-1.864,6.631-5.355v-4.418v-24.188v-25.98v-22.077v-6.528
	C77.312,338.342,74.089,335.737,70.68,336.468z"/>
<path style="fill:#D1D5CD;" d="M77.312,370.438v25.98c0,1.092-3.223,1.905-6.631,1.668l-62.607-4.479
	C4.572,393.37,0,392.402,0,391.28v-15.703c0-1.122,4.572-2.09,8.073-2.327l62.607-4.49
	C74.089,368.533,77.312,369.347,77.312,370.438z"/>
<path style="fill:#FFC35A;" d="M512,90.569v153.851c0,5.015-1.998,9.072-7.012,9.072h-17.042c-5.004,0-9.072-4.057-9.072-9.072
	v-2.605V93.174v-2.605c0-5.015,4.067-9.072,9.072-9.072h17.042C510.002,81.497,512,85.555,512,90.569z"/>
<g>
</g>
<g>
</g>
<g>
</g>
<g>
</g>
<g>
</g>
<g>
</g>
<g>
</g>
<g>
</g>
<g>
</g>
<g>
</g>
<g>
</g>
<g>
</g>
<g>
</g>
<g>
</g>
<g>
</g>
</svg>
