<?xml version="1.0" encoding="iso-8859-1"?>
<!-- Generator: Adobe Illustrator 19.0.0, SVG Export Plug-In . SVG Version: 6.00 Build 0)  -->
<svg version="1.1" id="Capa_1" xmlns="http://www.w3.org/2000/svg" xmlns:xlink="http://www.w3.org/1999/xlink" x="0px" y="0px"
	 viewBox="0 0 470.688 470.688" style="enable-background:new 0 0 470.688 470.688;" xml:space="preserve">
<linearGradient id="SVGID_1_" gradientUnits="userSpaceOnUse" x1="236.3628" y1="479.2545" x2="236.3628" y2="51.0845" gradientTransform="matrix(1 0 0 -1 0 472.509)">
	<stop  offset="0" style="stop-color:#00EFD1"/>
	<stop  offset="1" style="stop-color:#00ACEA"/>
</linearGradient>
<path style="fill:url(#SVGID_1_);" d="M301.223,288.92l-38.635-5.578l-17.284-35.269c-1.658-3.471-5.123-5.719-8.968-5.818h-0.006
	c-3.847,0.101-7.312,2.352-8.966,5.827l-17.235,35.139l-38.629,5.634c-5.484,0.812-9.271,5.915-8.459,11.398
	c0.321,2.167,1.341,4.169,2.906,5.702l27.944,27.265l-6.587,38.516c-0.933,5.443,2.723,10.613,8.167,11.546
	c2.168,0.372,4.398,0.018,6.344-1.006l34.524-18.153l34.574,18.156c4.889,2.568,10.935,0.686,13.503-4.203
	c1.021-1.944,1.374-4.171,1.004-6.336l-6.587-38.512l27.944-27.258c3.954-3.856,4.032-10.187,0.176-14.141
	c-1.537-1.576-3.551-2.6-5.73-2.915V288.92z M261.109,322.584c-2.354,2.296-3.429,5.603-2.875,8.844l4.06,23.741l-21.309-11.19
	c-2.911-1.53-6.389-1.53-9.3,0l-21.253,11.176l4.058-23.727c0.554-3.241-0.521-6.548-2.875-8.844l-17.188-16.767l23.776-3.432
	c3.265-0.471,6.087-2.522,7.543-5.482l10.6-21.54l10.634,21.549c1.458,2.955,4.278,5.002,7.539,5.473l23.776,3.432L261.109,322.584z
	"/>
<g>
	
		<linearGradient id="SVGID_2_" gradientUnits="userSpaceOnUse" x1="73.4582" y1="479.2545" x2="73.4582" y2="51.0845" gradientTransform="matrix(1 0 0 -1 0 472.509)">
		<stop  offset="0" style="stop-color:#00EFD1"/>
		<stop  offset="1" style="stop-color:#00ACEA"/>
	</linearGradient>
	<path style="fill:url(#SVGID_2_);" d="M138.35,288.92l-38.636-5.578l-17.283-35.025c-2.444-4.953-8.439-6.987-13.392-4.544
		c-1.973,0.973-3.57,2.57-4.544,4.544l-17.286,35.025L8.573,288.92c-5.466,0.789-9.258,5.86-8.469,11.326
		c0.315,2.182,1.342,4.198,2.921,5.736l27.984,27.252l-6.63,38.5c-0.936,5.443,2.717,10.614,8.16,11.55
		c2.166,0.372,4.394,0.021,6.34-0.999l34.578-18.158l34.577,18.158c4.889,2.568,10.935,0.687,13.503-4.203
		c1.023-1.948,1.375-4.18,1.002-6.348l-6.631-38.5l27.984-27.252c3.957-3.853,4.042-10.184,0.19-14.141
		C142.545,290.262,140.53,289.235,138.35,288.92z M98.189,322.578c-2.361,2.299-3.438,5.614-2.878,8.862l4.084,23.715L78.11,343.979
		c-2.911-1.53-6.389-1.53-9.3,0l-21.282,11.176l4.084-23.715c0.56-3.248-0.517-6.563-2.878-8.862L31.52,305.815l23.756-3.43
		c3.261-0.471,6.081-2.518,7.539-5.473l10.646-21.573l10.645,21.573c1.458,2.955,4.278,5.002,7.539,5.473l23.756,3.43
		L98.189,322.578z"/>
	
		<linearGradient id="SVGID_3_" gradientUnits="userSpaceOnUse" x1="397.2323" y1="479.2545" x2="397.2323" y2="51.0845" gradientTransform="matrix(1 0 0 -1 0 472.509)">
		<stop  offset="0" style="stop-color:#00EFD1"/>
		<stop  offset="1" style="stop-color:#00ACEA"/>
	</linearGradient>
	<path style="fill:url(#SVGID_3_);" d="M462.127,288.92l-38.636-5.578l-17.284-35.025c-2.444-4.953-8.439-6.987-13.392-4.544
		c-1.973,0.973-3.57,2.57-4.544,4.544l-17.283,35.025l-38.638,5.578c-5.466,0.789-9.258,5.86-8.469,11.326
		c0.315,2.182,1.342,4.198,2.921,5.736l27.984,27.252l-6.631,38.5c-0.936,5.443,2.717,10.614,8.16,11.55
		c2.166,0.372,4.394,0.021,6.34-0.999l34.577-18.158l34.578,18.158c4.891,2.565,10.935,0.68,13.501-4.211
		c1.021-1.946,1.372-4.174,0.999-6.34l-6.63-38.5l27.984-27.252c3.957-3.853,4.041-10.184,0.188-14.141
		c-1.538-1.579-3.554-2.606-5.736-2.921H462.127z M421.966,322.578c-2.361,2.299-3.438,5.614-2.878,8.862l4.084,23.715
		l-21.283-11.176c-2.911-1.529-6.389-1.529-9.3,0l-21.282,11.176l4.084-23.715c0.56-3.248-0.517-6.563-2.878-8.862l-17.214-16.763
		l23.756-3.43c3.261-0.471,6.081-2.518,7.539-5.473l10.645-21.573l10.646,21.573c1.458,2.955,4.278,5.002,7.539,5.473l23.756,3.43
		L421.966,322.578z"/>
	
		<linearGradient id="SVGID_4_" gradientUnits="userSpaceOnUse" x1="156.1954" y1="479.2545" x2="156.1954" y2="51.0845" gradientTransform="matrix(1 0 0 -1 0 472.509)">
		<stop  offset="0" style="stop-color:#00EFD1"/>
		<stop  offset="1" style="stop-color:#00ACEA"/>
	</linearGradient>
	<path style="fill:url(#SVGID_4_);" d="M201.272,225.859c3.079-2.236,4.622-6.026,3.981-9.777l-6.586-38.513l27.943-27.257
		c3.955-3.855,4.035-10.186,0.18-14.141c-1.538-1.577-3.553-2.603-5.733-2.917l-38.629-5.577l-17.234-34.923
		c-1.69-3.398-5.172-5.534-8.967-5.5c-3.793-0.036-7.274,2.094-8.968,5.487l-17.289,34.981l-38.636,5.556
		c-5.46,0.782-9.252,5.842-8.47,11.302c0.312,2.182,1.338,4.199,2.916,5.737l27.944,27.255l-6.586,38.511
		c-0.93,5.444,2.729,10.611,8.173,11.541c2.164,0.37,4.389,0.017,6.333-1.003l34.575-18.156l34.523,18.153
		C194.11,228.39,198.192,228.096,201.272,225.859L201.272,225.859z M160.872,188.317c-2.911-1.531-6.389-1.531-9.3,0l-21.309,11.19
		l4.06-23.741c0.554-3.241-0.52-6.548-2.874-8.844l-17.189-16.768l23.777-3.432c3.261-0.471,6.081-2.518,7.539-5.473l10.633-21.549
		l10.6,21.54c1.456,2.959,4.277,5.009,7.541,5.481l23.78,3.433l-17.188,16.767c-2.354,2.296-3.428,5.603-2.874,8.844l4.057,23.727
		L160.872,188.317z"/>
	
		<linearGradient id="SVGID_5_" gradientUnits="userSpaceOnUse" x1="317.0995" y1="479.2545" x2="317.0995" y2="51.0845" gradientTransform="matrix(1 0 0 -1 0 472.509)">
		<stop  offset="0" style="stop-color:#00EFD1"/>
		<stop  offset="1" style="stop-color:#00ACEA"/>
	</linearGradient>
	<path style="fill:url(#SVGID_5_);" d="M362.178,225.855c3.078-2.236,4.62-6.026,3.979-9.776l-6.587-38.513l27.944-27.257
		c3.953-3.857,4.03-10.188,0.173-14.141c-1.536-1.574-3.549-2.598-5.727-2.913l-38.635-5.578L326.041,92.74
		c-1.695-3.392-5.176-5.521-8.968-5.485c-3.795-0.034-7.277,2.102-8.967,5.5l-17.235,34.973l-38.628,5.555
		c-5.46,0.781-9.253,5.839-8.472,11.299c0.312,2.183,1.338,4.201,2.918,5.74l27.943,27.255l-6.586,38.511
		c-0.926,5.445,2.737,10.609,8.182,11.535c2.16,0.367,4.382,0.015,6.322-1.003l34.524-18.154l34.576,18.156
		C355.019,228.39,359.1,228.092,362.178,225.855z M321.723,188.312c-2.911-1.529-6.389-1.529-9.3,0l-21.25,11.174l4.057-23.727
		c0.551-3.24-0.526-6.544-2.88-8.838l-17.186-16.766l23.776-3.432c3.265-0.471,6.087-2.522,7.543-5.482l10.6-21.54l10.634,21.549
		c1.458,2.955,4.278,5.002,7.539,5.473l23.776,3.432l-17.182,16.766c-2.354,2.296-3.429,5.603-2.875,8.844l4.061,23.741
		L321.723,188.312z"/>
</g>
<g>
</g>
<g>
</g>
<g>
</g>
<g>
</g>
<g>
</g>
<g>
</g>
<g>
</g>
<g>
</g>
<g>
</g>
<g>
</g>
<g>
</g>
<g>
</g>
<g>
</g>
<g>
</g>
<g>
</g>
</svg>
