<?xml version="1.0" encoding="iso-8859-1"?>
<!-- Generator: Adobe Illustrator 19.0.0, SVG Export Plug-In . SVG Version: 6.00 Build 0)  -->
<svg version="1.1" id="Capa_1" xmlns="http://www.w3.org/2000/svg" xmlns:xlink="http://www.w3.org/1999/xlink" x="0px" y="0px"
	 viewBox="0 0 469.333 469.333" style="enable-background:new 0 0 469.333 469.333;" xml:space="preserve">
<path style="fill:#559AFF;" d="M373.333,0c-53.019,0-96,42.981-96,96s42.981,96,96,96s96-42.981,96-96l0,0
	C469.333,42.981,426.353,0,373.333,0C373.333,0,373.333,0,373.333,0z M373.333,170.667c-41.237,0-74.667-33.429-74.667-74.667
	s33.429-74.667,74.667-74.667S448,54.763,448,96c0,0,0,0,0,0C448,137.237,414.57,170.667,373.333,170.667z"/>
<path style="fill:#1172FF;" d="M373.333,0c-53.019,0-96,42.98-96,96c0,0,0,0,0,0v0.078l0,0.034l0,0.045v0.031l0,0.047l0,0.037
	l0,0.042l0,0.042l0,0.036l0,0.037l0,0.042l0,0.032l0,0.046l0,0.031l0,0.047l0,0.033l0,0.045l0,0.029l0,0.051l0,0.026l0,0.052
	l0,0.029l0,0.049l0,0.034l0,0.044l0,0.035l0,0.043l0,0.039l0,0.039l0,0.037l0,0.041l0.001,0.041l0,0.037l0.001,0.04l0,0.038
	l0.001,0.043l0,0.033l0.001,0.044l0,0.036l0.001,0.044l0.001,0.034l0.001,0.042l0.001,0.039l0.001,0.037l0.001,0.043l0.001,0.034
	l0.001,0.044l0.001,0.036l0.001,0.043l0.001,0.033l0.001,0.045l0.001,0.036l0.001,0.042l0.001,0.034l0.001,0.045l0.001,0.035
	l0.001,0.044l0.001,0.032l0.001,0.046l0.001,0.033l0.001,0.045l0.001,0.032l0.001,0.046l0.001,0.034l0.001,0.043l0.001,0.033
	l0.001,0.045l0.001,0.034l0.001,0.045l0.001,0.031l0.001,0.047l0.001,0.033l0.001,0.049l0.001,0.026l0.002,0.055l0.001,0.024
	l0.002,0.058l0.001,0.018l0.002,0.056l0.001,0.025l0.002,0.055l0.001,0.021l0.002,0.059l0.001,0.02l0.005,0.143l0,0.013
	c0.019,0.522,0.041,1.043,0.068,1.563l0,0.005c0.005,0.103,0.011,0.206,0.016,0.309l0,0c0.264,4.829,0.892,9.631,1.88,14.366
	c1.209,5.766,6.864,9.459,12.629,8.25c5.758-1.208,9.451-6.849,8.254-12.609c-8.434-40.414,17.491-80.013,57.905-88.446
	c4.995-1.042,10.083-1.57,15.185-1.576c5.891-0.001,10.666-4.777,10.665-10.668C383.998,4.775,379.223,0.001,373.333,0L373.333,0z"
	/>
<path style="fill:#19E77C;" d="M341.333,85.333H231.006c-11.316,0-22.169,4.495-30.171,12.496L12.497,286.169
	c-16.662,16.662-16.663,43.676-0.001,60.339c0,0,0.001,0.001,0.001,0.001l110.327,110.327c16.662,16.662,43.676,16.663,60.339,0.001
	c0,0,0.001-0.001,0.001-0.001l188.339-188.34c8.002-8.001,12.498-18.853,12.497-30.169V128
	C384,104.436,364.898,85.334,341.333,85.333C341.334,85.333,341.333,85.333,341.333,85.333z M309.333,192c-17.673,0-32-14.327-32-32
	s14.327-32,32-32s32,14.327,32,32C341.333,177.673,327.006,192,309.333,192C309.333,192,309.333,192,309.333,192z"/>
<g>
	<path style="fill:#00CD6C;" d="M309.333,106.667c29.455,0.017,53.32,23.909,53.302,53.364
		c-0.017,29.455-23.909,53.32-53.364,53.303c-3.376-0.002-6.745-0.325-10.061-0.963c-5.787-1.104-9.582-6.69-8.478-12.477
		s6.69-9.582,12.477-8.478c0.012,0.002,0.024,0.005,0.036,0.007l0.003,0.001c1.496,0.288,3.01,0.468,4.531,0.541l0.001,0
		l0.045,0.002l0.004,0l0.043,0.002l0.006,0l0.04,0.002l0.01,0l0.036,0.002l0.015,0.001l0.034,0.001l0.015,0.001l0.033,0.001
		l0.016,0.001l0.034,0.001l0.017,0.001l0.031,0.001l0.019,0.001l0.031,0.001l0.017,0.001l0.032,0.001l0.017,0.001l0.032,0.001
		l0.018,0.001l0.03,0.001l0.019,0.001c0.054,0.002,0.108,0.003,0.161,0.004l0.019,0l0.028,0.001l0.021,0l0.027,0.001l0.024,0.001
		l0.024,0l0.025,0l0.025,0l0.026,0l0.023,0l0.027,0l0.023,0l0.027,0l0.023,0l0.026,0l0.024,0l0.028,0l0.022,0l0.027,0l0.023,0
		l0.027,0l0.023,0l0.026,0l0.024,0l0.03,0l0.02,0l0.031,0l0.019,0l0.031,0h0.019h0.05c17.673,0,32-14.327,32-32c0,0,0,0,0,0
		c0-17.673-14.327-32-32-32c0,0,0,0,0,0c-5.891,0.006-10.672-4.764-10.678-10.656c-0.006-5.891,4.764-10.672,10.656-10.678
		C309.318,106.667,309.326,106.667,309.333,106.667L309.333,106.667z"/>
	<path style="fill:#00CD6C;" d="M373.333,139.794c-5.891,0-10.667,4.776-10.667,10.667v87.866
		c0.016,5.661-2.235,11.093-6.249,15.085l-188.339,188.34c-8.33,8.331-21.837,8.332-30.168,0.001c0,0-0.001-0.001-0.001-0.001
		l-10.307-10.307c-4.171-4.16-10.925-4.15-15.085,0.021c-4.151,4.163-4.151,10.9,0,15.064l10.307,10.307
		c16.662,16.662,43.676,16.663,60.339,0.001c0,0,0.001-0.001,0.001-0.001l0.12-0.12l0.003-0.003l0.083-0.083l0.162-0.162
		l0.004-0.004c0.101-0.101,0.222-0.222,0.364-0.364l0.025-0.025l0.465-0.465l0.101-0.101l0.022-0.022l0.022-0.022l0.101-0.101
		l0.705-0.705l0.031-0.031l0.026-0.026l0.096-0.096l0.02-0.02l1.941-1.942l0.051-0.051l0.195-0.195l0.031-0.031l0.091-0.091
		l0.112-0.112l0.011-0.011l0.108-0.108l0.015-0.015l0.196-0.196l0.049-0.049l0.199-0.199l0.046-0.046l0.048-0.048l0.074-0.074
		l0.053-0.053l0.069-0.069l0.093-0.093l0.03-0.03l0.069-0.069l0.054-0.054l0.046-0.046l0.322-0.322l0.017-0.017
		c27.419-27.419,136.91-136.911,171.524-171.525l0.162-0.162l0.084-0.084l0.055-0.055l0.19-0.19l0.039-0.039l0.206-0.206l0.02-0.02
		c0.326-0.326,0.65-0.65,0.961-0.961l0.038-0.038l0.698-0.698l0.199-0.199l0.047-0.047l0.11-0.11l0.012-0.012l0.104-0.104
		l0.019-0.019l0.058-0.058l0.064-0.064l0.012-0.012l0.11-0.11l0.229-0.228l0.139-0.139l0.19-0.19l0.055-0.055l0.474-0.474
		l0.017-0.017l0.322-0.322l0.046-0.046l0.054-0.054l0.069-0.069l0.03-0.03l0.093-0.093l0.069-0.069l0.053-0.053l0.074-0.074
		l0.048-0.048l0.046-0.046l0.199-0.199l0.049-0.049l0.196-0.196l0.015-0.015l0.108-0.108l0.011-0.011l0.112-0.112l0.091-0.091
		l0.031-0.031l0.195-0.195l0.051-0.051l1.942-1.942l0.02-0.02l0.096-0.096l0.026-0.026l0.031-0.031l0.705-0.705l0.101-0.101
		l0.022-0.022l0.022-0.022l0.1-0.101l0.465-0.465l0.025-0.025l0.364-0.364l0.004-0.004l0.162-0.162l0.083-0.083l0.003-0.003
		l0.12-0.12c8.002-8.001,12.498-18.853,12.497-30.169V150.46C384,144.569,379.224,139.794,373.333,139.794L373.333,139.794z"/>
</g>
<g>
	<path style="fill:#F6EDFF;" d="M272.915,251.582l-46.327-46.327c-17.673-17.673-46.327-17.673-64,0s-17.673,46.327,0,64
		l37.49,37.49c5.891,5.891,5.891,15.442,0,21.333c-5.891,5.891-15.442,5.891-21.333,0l0,0l-46.327-46.327
		c-5.895-5.887-15.446-5.88-21.333,0.015c-5.881,5.889-5.881,15.429,0,21.318l46.327,46.327c17.673,17.673,46.327,17.673,64,0
		s17.673-46.327,0-64l-37.49-37.49c-5.887-5.895-5.88-15.446,0.015-21.333c5.889-5.881,15.429-5.881,21.318,0l46.327,46.327
		c5.891,5.891,15.442,5.891,21.333,0S278.806,257.473,272.915,251.582L272.915,251.582L272.915,251.582z"/>
	<path style="fill:#F6EDFF;" d="M223.991,224l27.591-27.591c5.889-5.889,15.437-5.889,21.326,0l0.007,0.007
		c5.889,5.889,5.889,15.437,0,21.326l-27.591,27.591c-5.889,5.889-15.437,5.889-21.326,0l-0.007-0.007
		C218.102,239.437,218.102,229.889,223.991,224z"/>
	<path style="fill:#F6EDFF;" d="M111.084,336.926l23.171-23.171c5.889-5.889,15.437-5.889,21.326,0l0.007,0.007
		c5.889,5.889,5.889,15.437,0,21.326l-23.171,23.171c-5.889,5.889-15.437,5.889-21.326,0l-0.007-0.007
		C105.195,352.363,105.195,342.815,111.084,336.926z"/>
</g>
<g>
	<path style="fill:#8CF3BE;" d="M25.742,294.256l55.169-55.169c5.889-5.889,15.437-5.889,21.326,0l0.007,0.007
		c5.889,5.889,5.889,15.437,0,21.326l-55.169,55.169c-5.889,5.889-15.437,5.889-21.326,0l-0.007-0.007
		C19.853,309.693,19.853,300.145,25.742,294.256z"/>
	<path style="fill:#8CF3BE;" d="M111.086,208.921l97.836-97.836c5.889-5.889,15.437-5.889,21.326,0l0.007,0.007
		c5.889,5.889,5.889,15.437,0,21.326l-97.836,97.836c-5.889,5.889-15.437,5.889-21.326,0l-0.007-0.007
		C105.196,224.359,105.196,214.81,111.086,208.921z"/>
</g>
<path style="fill:#559AFF;" d="M373.333,170.667c-19.508,0.005-38.236-7.657-52.147-21.333h-22.52v6.327
	c17.592,21.983,44.322,36.34,74.667,36.34c18.994,0.019,37.563-5.625,53.333-16.211v-26.456h-1.186
	C411.569,163.01,392.841,170.672,373.333,170.667L373.333,170.667z"/>
<g>
</g>
<g>
</g>
<g>
</g>
<g>
</g>
<g>
</g>
<g>
</g>
<g>
</g>
<g>
</g>
<g>
</g>
<g>
</g>
<g>
</g>
<g>
</g>
<g>
</g>
<g>
</g>
<g>
</g>
</svg>
