<?xml version="1.0" encoding="iso-8859-1"?>
<!-- Generator: Adobe Illustrator 19.0.0, SVG Export Plug-In . SVG Version: 6.00 Build 0)  -->
<svg version="1.1" id="Capa_1" xmlns="http://www.w3.org/2000/svg" xmlns:xlink="http://www.w3.org/1999/xlink" x="0px" y="0px"
	 viewBox="0 0 512 512" style="enable-background:new 0 0 512 512;" xml:space="preserve">
<path style="fill:#73BCFF;" d="M60,90h60c19.468,0,37.405,9.716,48.003,23.789L217.676,180H256c16.538,0,31,13.462,31,30
	s-14.462,30-31,30h-68.324L150,189.741V512h-45V330H75v182H30V331.846l-9.99-3.545C8.042,324.053,0,312.686,0,300V150
	C0,116.909,26.909,90,60,90z"/>
<circle style="fill:#FF7816;" cx="422" cy="45" r="45"/>
<circle style="fill:#73BCFF;" cx="90" cy="45" r="45"/>
<path style="fill:#FF9F00;" d="M512,150v150c0,12.599-8.101,24-20.099,28.2L482,331.8V512h-45V330h-30v182h-45V189.6L324.2,240H256
	c-16.5,0-31-13.5-31-30s14.5-30,31-30h38.2l49.801-66.301C354.5,99.6,372.499,90,392,90h60C484.999,90,512,117.001,512,150z"/>
<path style="fill:#FF7816;" d="M512,150v150c0,12.599-8.101,24-20.099,28.2L482,331.8V512h-45V330h-30v182h-45V189.6L324.2,240H256
	v-60h38.2l49.801-66.301C354.5,99.6,372.499,90,392,90h60C484.999,90,512,117.001,512,150z"/>
<g>
</g>
<g>
</g>
<g>
</g>
<g>
</g>
<g>
</g>
<g>
</g>
<g>
</g>
<g>
</g>
<g>
</g>
<g>
</g>
<g>
</g>
<g>
</g>
<g>
</g>
<g>
</g>
<g>
</g>
</svg>
