<?xml version="1.0" encoding="iso-8859-1"?>
<!-- Generator: Adobe Illustrator 19.0.0, SVG Export Plug-In . SVG Version: 6.00 Build 0)  -->
<svg version="1.1" id="Capa_1" xmlns="http://www.w3.org/2000/svg" xmlns:xlink="http://www.w3.org/1999/xlink" x="0px" y="0px"
	 viewBox="0 0 512.124 512.124" style="enable-background:new 0 0 512.124 512.124;" xml:space="preserve">
<g transform="translate(0 -1)">
	<g>
		<g>
			<path d="M54.919,211.41c0.014,11.621,7.335,21.977,18.286,25.866V147.41H54.919V211.41z"/>
			<path d="M329.205,138.267H182.919c-5.048,0.003-9.139,4.095-9.143,9.143v73.143c0.003,5.048,4.095,9.139,9.143,9.143h146.286
				c5.048-0.003,9.139-4.095,9.143-9.143V147.41C338.344,142.362,334.253,138.27,329.205,138.267z M201.196,211.41
				c-3.46-0.006-6.62-1.964-8.165-5.059c-1.546-3.095-1.212-6.797,0.862-9.566l27.429-36.571c1.955-2.623,5.163-4.001,8.411-3.613
				c3.248,0.388,6.042,2.482,7.324,5.491c1.283,3.009,0.859,6.475-1.11,9.087l-27.429,36.571
				C206.794,210.06,204.078,211.418,201.196,211.41z M242.339,211.41c-3.459-0.006-6.62-1.964-8.165-5.059
				c-1.546-3.095-1.212-6.797,0.862-9.566l27.429-36.571c1.955-2.623,5.163-4.001,8.411-3.613s6.042,2.482,7.324,5.491
				c1.283,3.009,0.859,6.475-1.11,9.087l-27.429,36.571C247.937,210.06,245.221,211.418,242.339,211.41z M318.231,171.178
				l-27.429,36.571c-1.955,2.623-5.163,4.001-8.411,3.613c-3.248-0.388-6.042-2.482-7.324-5.491s-0.859-6.475,1.11-9.087
				l27.429-36.571c3.033-4.022,8.749-4.831,12.779-1.81S321.242,167.139,318.231,171.178z"/>
			<path d="M365.776,101.695H146.348c-5.048,0.003-9.139,4.095-9.143,9.143v155.455c-0.002,0.676,0.493,1.25,1.161,1.348
				l0.348,0.054c77.839,11.089,156.857,11.089,234.696,0l0.348-0.054c0.668-0.098,1.163-0.673,1.16-1.348V110.838
				C374.916,105.79,370.824,101.699,365.776,101.695z M356.633,220.553c-0.017,15.142-12.287,27.412-27.429,27.429H182.919
				c-15.142-0.017-27.412-12.287-27.429-27.429V147.41c0.016-15.142,12.287-27.412,27.429-27.429h146.286
				c15.141,0.016,27.412,12.287,27.429,27.429V220.553z"/>
			<path d="M301.776,494.838h-91.429c-57.937,0-97.621-58.383-118.857-108.446v24.348c-0.002,6.056,1.502,12.017,4.375,17.348
				c10.777,19.946,49.58,85.035,96.196,85.035h128c46.616,0,85.42-65.089,96.196-85.036c2.873-5.331,4.377-11.292,4.375-17.348
				v-24.347C399.397,436.455,359.714,494.838,301.776,494.838z"/>
			<path d="M301.776,1.124h-91.429c-33.908-1.568-66.799,11.805-89.991,36.59C101.33,59.351,91.04,87.297,91.491,116.106v205.018
				c0,23.491,44.321,155.429,118.857,155.429h91.429c74.536,0,118.857-131.937,118.857-155.429V116.106
				c0.451-28.809-9.84-56.755-28.866-78.392C368.575,12.929,335.684-0.444,301.776,1.124z M187.83,438.553
				c-4.261,2.709-9.911,1.455-12.625-2.804l-64-100.571c-2.712-4.26-1.457-9.913,2.804-12.625s9.913-1.457,12.625,2.804l64,100.571
				C193.345,430.188,192.09,435.84,187.83,438.553z M400.919,335.178l-64,100.571c-1.754,2.756-4.846,4.367-8.11,4.225
				s-6.205-2.013-7.714-4.911s-1.359-6.38,0.396-9.136l64-100.571c2.72-4.25,8.362-5.503,12.625-2.804
				C402.376,325.265,403.631,330.917,400.919,335.178z M393.205,266.294c-0.039,9.612-6.994,17.8-16.473,19.393l-0.42,0.071
				c-39.831,5.688-80.015,8.544-120.25,8.545c-40.235-0.001-80.419-2.856-120.25-8.545l-0.429-0.071
				c-9.478-1.594-16.43-9.782-16.464-19.393V110.838c0.017-15.142,12.287-27.412,27.429-27.429h219.429
				c15.142,0.017,27.412,12.287,27.429,27.429V266.294z"/>
			<path d="M438.919,147.41v89.866c10.95-3.89,18.271-14.245,18.286-25.866v-64H438.919z"/>
		</g>
	</g>
</g>
<g>
</g>
<g>
</g>
<g>
</g>
<g>
</g>
<g>
</g>
<g>
</g>
<g>
</g>
<g>
</g>
<g>
</g>
<g>
</g>
<g>
</g>
<g>
</g>
<g>
</g>
<g>
</g>
<g>
</g>
</svg>
